# xmcd CD database file
#
# Track frame offsets:
#	150
#	24917
#	47325
#	66853
#	89122
#	111161
#	134638
#	153437
#	177969
#	200304
#	220233
#	246551
#	268459
#	288048
#	307296
#
# Disc length: 4405 seconds
#
# Revision: 3
# Processed by: cddbd v1.5PL3 Copyright (c) Steve Scherf et al.
# Submitted via: CDex 1.50beta9
#
DISCID=e811330f
DTITLE=Every Little Thing - Every Best Singles 2
DYEAR=2003
DGENRE=Pop
TTITLE0=Pray
TTITLE1=sure
TTITLE2=Rescue me
TTITLE3=愛のカケラ
TTITLE4=fragile
TTITLE5=Graceful World
TTITLE6=jump
TTITLE7=キヲク
TTITLE8=ささやかな祈り
TTITLE9=UNSPEAKABLE
TTITLE10=nostalgia
TTITLE11=Grip!
TTITLE12=ファンダメンタル・ラブ
TTITLE13=For the moment（アコースティックバージョン）
TTITLE14=出逢った頃のように（アコースティックバージョン）
EXTD=YEAR: 2003
EXTT0=
EXTT1=
EXTT2=
EXTT3=
EXTT4=
EXTT5=
EXTT6=
EXTT7=
EXTT8=
EXTT9=
EXTT10=
EXTT11=
EXTT12=
EXTT13=
EXTT14=
PLAYORDER=
